<svg xmlns="http://www.w3.org/2000/svg" xmlns:xlink="http://www.w3.org/1999/xlink" width="17.813" height="14.187" viewBox="0 0 17.813 14.187">
  <defs>
    <style>
      .cls-1 {
        fill-rule: evenodd;
        filter: url(#filter);
      }
    </style>
    <filter id="filter" x="322.531" y="865.813" width="17.813" height="14.187" filterUnits="userSpaceOnUse">
      <feFlood result="flood" flood-color="#fff"/>
      <feComposite result="composite" operator="in" in2="SourceGraphic"/>
      <feBlend result="blend" in2="SourceGraphic"/>
    </filter>
  </defs>
  <path id="twitter" class="cls-1" d="M340.353,867.482a7.426,7.426,0,0,1-2.1.565,3.606,3.606,0,0,0,1.606-1.984,7.406,7.406,0,0,1-2.32.871,3.68,3.68,0,0,0-2.667-1.132,3.619,3.619,0,0,0-3.654,3.584,3.547,3.547,0,0,0,.095.817,10.444,10.444,0,0,1-7.531-3.745,3.519,3.519,0,0,0-.494,1.8,3.568,3.568,0,0,0,1.625,2.984,3.693,3.693,0,0,1-1.655-.449v0.045a3.6,3.6,0,0,0,2.931,3.515,3.728,3.728,0,0,1-.963.126,3.792,3.792,0,0,1-.687-0.064,3.649,3.649,0,0,0,3.413,2.489,7.5,7.5,0,0,1-5.41,1.484,10.481,10.481,0,0,0,5.6,1.611,10.222,10.222,0,0,0,10.4-10.2c0-.155,0-0.31-0.011-0.464A7.357,7.357,0,0,0,340.353,867.482Z" transform="translate(-322.531 -865.813)"/>
</svg>
